<svg width="53" height="66" viewBox="0 0 53 66" fill="none" xmlns="http://www.w3.org/2000/svg">
<mask id="path-1-inside-1_3566_2023" fill="white">
<path fill-rule="evenodd" clip-rule="evenodd" d="M30.3458 49.7667C30.4984 49.5108 30.7584 49.3373 31.0519 49.2865C43.0553 47.207 52.1655 37.0521 52.1655 24.838C52.1655 11.1204 40.6741 0 26.4988 0C12.3234 0 0.832031 11.1204 0.832031 24.838C0.832031 37.0534 9.94423 47.2092 21.9496 49.2872C22.2431 49.338 22.5032 49.5115 22.6558 49.7674L25.6418 54.7723C26.0297 55.4225 26.9715 55.4225 27.3594 54.7723L30.3458 49.7667Z"/>
</mask>
<path fill-rule="evenodd" clip-rule="evenodd" d="M30.3458 49.7667C30.4984 49.5108 30.7584 49.3373 31.0519 49.2865C43.0553 47.207 52.1655 37.0521 52.1655 24.838C52.1655 11.1204 40.6741 0 26.4988 0C12.3234 0 0.832031 11.1204 0.832031 24.838C0.832031 37.0534 9.94423 47.2092 21.9496 49.2872C22.2431 49.338 22.5032 49.5115 22.6558 49.7674L25.6418 54.7723C26.0297 55.4225 26.9715 55.4225 27.3594 54.7723L30.3458 49.7667Z" fill="white"/>
<path d="M25.6418 54.7723L26.5006 54.2599L25.6418 54.7723ZM27.3594 54.7723L26.5006 54.2599L27.3594 54.7723ZM21.9496 49.2872L21.779 50.2725L21.9496 49.2872ZM22.6558 49.7674L21.7971 50.2797L22.6558 49.7674ZM31.0519 49.2865L30.8812 48.3011L31.0519 49.2865ZM30.3458 49.7667L29.487 49.2543L30.3458 49.7667ZM51.1655 24.838C51.1655 36.5341 42.4371 46.2992 30.8812 48.3011L31.2226 50.2718C43.6735 48.1148 53.1655 37.5701 53.1655 24.838H51.1655ZM26.4988 1C40.153 1 51.1655 11.7033 51.1655 24.838H53.1655C53.1655 10.5374 41.1952 -1 26.4988 -1V1ZM1.83203 24.838C1.83203 11.7033 12.8445 1 26.4988 1V-1C11.8023 -1 -0.167969 10.5374 -0.167969 24.838H1.83203ZM22.1201 48.3018C10.5623 46.3013 1.83203 36.5353 1.83203 24.838H-0.167969C-0.167969 37.5714 9.32611 48.1171 21.779 50.2725L22.1201 48.3018ZM26.5006 54.2599L23.5146 49.255L21.7971 50.2797L24.783 55.2846L26.5006 54.2599ZM29.487 49.2543L26.5006 54.2599L28.2181 55.2846L31.2045 50.279L29.487 49.2543ZM24.783 55.2846C25.5589 56.585 27.4423 56.585 28.2181 55.2846L26.5006 54.2599L24.783 55.2846ZM21.779 50.2725C21.7864 50.2738 21.7919 50.2764 21.7952 50.2786C21.7982 50.2807 21.7981 50.2815 21.7971 50.2797L23.5146 49.255C23.207 48.7395 22.6904 48.4005 22.1201 48.3018L21.779 50.2725ZM30.8812 48.3011C30.311 48.3999 29.7945 48.7389 29.487 49.2543L31.2045 50.279C31.2035 50.2807 31.2034 50.28 31.2064 50.2779C31.2097 50.2757 31.2152 50.2731 31.2226 50.2718L30.8812 48.3011Z" fill="url(#paint0_linear_3566_2023)" mask="url(#path-1-inside-1_3566_2023)"/>
<g clip-path="url(#clip0_3566_2023)">
<path d="M42.6515 25.0684C42.6515 30.8131 38.066 35.47 32.4093 35.47C29.8736 35.47 27.5536 34.534 25.7648 32.9844C25.7496 32.9705 25.734 32.9566 25.7177 32.9435C25.4935 32.7553 25.2059 32.6424 24.8927 32.6424C24.5632 32.6424 24.2622 32.7673 24.0335 32.9721C24.0023 33.0003 23.9719 33.03 23.9437 33.0609C22.4065 34.5533 20.3232 35.47 18.0291 35.47C13.3016 35.47 9.46875 31.5778 9.46875 26.7764C9.46875 21.975 13.3009 18.0828 18.0287 18.0828C19.6272 18.0828 21.1241 18.528 22.4046 19.3032C22.6005 19.4241 22.8307 19.4941 23.0773 19.4941C23.4898 19.4941 23.857 19.2985 24.0948 18.994C24.1172 18.9658 24.1385 18.9361 24.1583 18.9055C26.0228 16.3346 29.0239 14.6667 32.4093 14.6667C38.066 14.6667 42.6515 19.3236 42.6515 25.0684Z" fill="url(#paint1_linear_3566_2023)"/>
<path d="M20.9418 30.2377C20.892 30.1933 20.8437 30.1488 20.7969 30.104C20.8498 30.1438 20.8981 30.1898 20.9418 30.2377Z" fill="url(#paint2_linear_3566_2023)"/>
<path d="M25.0547 20.1494C25.1201 20.0509 25.1871 19.9535 25.256 19.8577C25.1974 19.9612 25.13 20.059 25.0547 20.1494Z" fill="url(#paint3_linear_3566_2023)"/>
<path d="M26.3972 32.7137C26.3424 32.6603 26.288 32.6066 26.2344 32.5518C26.2922 32.6024 26.3466 32.6565 26.3972 32.7137Z" fill="url(#paint4_linear_3566_2023)"/>
<path d="M24.1062 32.9426C24.0761 32.9728 24.0461 33.0025 24.0156 33.0323C24.0442 33.001 24.0746 32.9712 24.1062 32.9426Z" fill="url(#paint5_linear_3566_2023)"/>
<path d="M42.222 28.8694C41.4001 28.8694 39.9302 28.6669 39.9302 27.1992V23.5938H42.6212V19.3303H39.9302V14.8708H35.7454V19.3303H32.8052C32.7664 19.3303 32.7275 19.3311 32.6887 19.3318C30.8212 19.3902 29.2562 20.8343 28.7196 22.569H28.669C28.669 22.569 28.7196 22.3162 28.7196 21.9117V21.2284C28.7196 20.039 28.0716 19.5583 26.9004 19.5583H23.0889V23.2275H24.0356C24.3841 23.2275 24.5835 23.4299 24.5835 23.7839V28.9196H21.5444C21.1958 28.9196 20.9964 28.7171 20.9964 28.3631V24.568C20.9964 21.4816 19.5265 19.2545 14.8931 19.2545C13.5719 19.2545 9.93501 19.4319 9.93501 22.3162V23.7584H13.9212V23.1768C13.9212 22.671 14.4939 22.5439 15.0418 22.5439C16.1137 22.5439 16.6864 22.9995 16.6864 24.2395V24.4671H16.5117C14.5437 24.4671 9.0625 24.8211 9.0625 28.9451C9.0625 31.2977 10.8562 32.8925 13.2732 32.8925C15.9143 32.8925 17.0102 30.9944 17.0102 30.9944H17.0597V31.222C17.0597 31.8039 17.5083 32.5888 18.7541 32.5888H28.8935V27.6548C28.8935 26.9461 28.9689 26.3645 29.1176 25.8834C29.7409 23.9358 31.4098 23.6065 32.4319 23.6065C32.9551 23.6065 33.3036 23.5938 33.3036 23.5938H35.6202V27.7816C35.6202 32.1587 39.5817 32.7151 41.6246 32.7151C42.3221 32.7151 42.7958 32.6394 42.7958 32.6394V28.8443C42.7958 28.8443 42.5713 28.8694 42.222 28.8694ZM16.7362 27.326C16.7362 28.3886 15.7644 29.6283 14.5437 29.6283C13.7466 29.6283 13.3227 29.0719 13.3227 28.4895C13.3227 27.4017 14.8931 26.9712 16.2629 26.9712H16.7362V27.326Z" fill="white"/>
</g>
<circle cx="26.4909" cy="62.3332" r="3.66668" fill="url(#paint6_linear_3566_2023)"/>
<defs>
<linearGradient id="paint0_linear_3566_2023" x1="18.9983" y1="-35.3598" x2="61.8764" y2="-31.3043" gradientUnits="userSpaceOnUse">
<stop stop-color="#69E6EC"/>
<stop offset="1" stop-color="#BC69FA"/>
</linearGradient>
<linearGradient id="paint1_linear_3566_2023" x1="21.2117" y1="1.35516" x2="48.4581" y2="5.78005" gradientUnits="userSpaceOnUse">
<stop stop-color="#41C5CB"/>
<stop offset="1" stop-color="#8034B9"/>
</linearGradient>
<linearGradient id="paint2_linear_3566_2023" x1="20.8406" y1="30.1867" x2="20.8981" y2="30.1561" gradientUnits="userSpaceOnUse">
<stop stop-color="#00FFFF"/>
<stop offset="0.16" stop-color="#1BC7E1"/>
<stop offset="0.36" stop-color="#3A85BF"/>
<stop offset="0.53" stop-color="#5255A6"/>
<stop offset="0.66" stop-color="#603896"/>
<stop offset="0.74" stop-color="#662D91"/>
</linearGradient>
<linearGradient id="paint3_linear_3566_2023" x1="25.0174" y1="20.0791" x2="25.2952" y2="19.9312" gradientUnits="userSpaceOnUse">
<stop stop-color="#00FFFF"/>
<stop offset="0.16" stop-color="#1BC7E1"/>
<stop offset="0.36" stop-color="#3A85BF"/>
<stop offset="0.53" stop-color="#5255A6"/>
<stop offset="0.66" stop-color="#603896"/>
<stop offset="0.74" stop-color="#662D91"/>
</linearGradient>
<linearGradient id="paint4_linear_3566_2023" x1="26.2861" y1="32.6488" x2="26.3459" y2="32.6171" gradientUnits="userSpaceOnUse">
<stop stop-color="#00FFFF"/>
<stop offset="0.16" stop-color="#1BC7E1"/>
<stop offset="0.36" stop-color="#3A85BF"/>
<stop offset="0.53" stop-color="#5255A6"/>
<stop offset="0.66" stop-color="#603896"/>
<stop offset="0.74" stop-color="#662D91"/>
</linearGradient>
<linearGradient id="paint5_linear_3566_2023" x1="24.0073" y1="33.0164" x2="24.1153" y2="32.9595" gradientUnits="userSpaceOnUse">
<stop stop-color="#00FFFF"/>
<stop offset="0.16" stop-color="#1BC7E1"/>
<stop offset="0.36" stop-color="#3A85BF"/>
<stop offset="0.53" stop-color="#5255A6"/>
<stop offset="0.66" stop-color="#603896"/>
<stop offset="0.74" stop-color="#662D91"/>
</linearGradient>
<linearGradient id="paint6_linear_3566_2023" x1="25.4194" y1="53.974" x2="31.5362" y2="54.5968" gradientUnits="userSpaceOnUse">
<stop stop-color="#69E6EC"/>
<stop offset="1" stop-color="#BC69FA"/>
</linearGradient>
<clipPath id="clip0_3566_2023">
<rect width="33.7333" height="20.5333" fill="white" transform="translate(9.0625 14.6667)"/>
</clipPath>
</defs>
</svg>
