<svg width="87" height="124" viewBox="0 0 87 124" fill="none" xmlns="http://www.w3.org/2000/svg">
<g opacity="0.1">
<path fill-rule="evenodd" clip-rule="evenodd" d="M49.4449 0H37.5478L32.582 42.9613H54.4109L49.4449 0ZM43.4938 54.3769C45.2411 54.3769 46.9016 54.4014 48.5228 54.4371V46.5487H38.4648V54.4371C40.086 54.4014 41.7465 54.3769 43.4938 54.3769ZM1.23438 65.9733C4.64754 62.9867 14.6675 57.9641 43.4977 57.9641C72.4228 57.9641 82.4146 63.0199 85.7898 65.9733H1.23438ZM75.2308 123.185L87 69.5608H0L11.7691 123.185H75.2308ZM34.4406 92.9459L41.955 80.1967C42.5978 79.1028 44.3985 79.0994 45.0449 80.1967L52.5419 92.9144C52.5454 92.9196 52.548 92.9249 52.5506 92.9301C52.5532 92.9354 52.5558 92.9407 52.5593 92.9459C53.43 94.4954 53.8907 96.2531 53.8907 98.0283C53.8907 103.758 49.2296 108.419 43.4999 108.419C37.7704 108.419 33.1093 103.758 33.1093 98.0283C33.1093 96.2531 33.57 94.4954 34.4406 92.9459ZM50.2981 98.0281C50.2981 101.779 47.2466 104.832 43.4946 104.832C39.7426 104.832 36.6914 101.779 36.6914 98.0281C36.6914 96.8677 36.9926 95.7177 37.5427 94.736L43.4946 84.6396L49.4345 94.7194C50.0003 95.7301 50.2981 96.873 50.2981 98.0281Z" fill="url(#paint0_linear_3586_307)"/>
</g>
<defs>
<linearGradient id="paint0_linear_3586_307" x1="43.5" y1="0" x2="43.5" y2="123.185" gradientUnits="userSpaceOnUse">
<stop stop-color="white"/>
<stop offset="1" stop-color="white" stop-opacity="0"/>
</linearGradient>
</defs>
</svg>
