<svg width="98" height="123" viewBox="0 0 98 123" fill="none" xmlns="http://www.w3.org/2000/svg">
<path opacity="0.1" fill-rule="evenodd" clip-rule="evenodd" d="M25.2286 30.7373V38.0262V40.1996H18.251V30.7735C18.251 13.8048 32.056 0 49.0255 0C65.995 0 79.8 13.8048 79.8 30.7735V40.1996H72.8224V38.0262V30.7373C72.8224 17.616 62.1474 6.941 49.0255 6.941C35.9034 6.941 25.2286 17.616 25.2286 30.7373ZM0.640625 43.9177H79.8011V50.4944H0.640625V43.9177ZM97.4148 43.9177H83.5218V50.4944H97.4148V43.9177ZM89.8507 73.5694C89.8507 78.0854 86.177 81.7591 81.6609 81.7591C77.1449 81.7591 73.4711 78.0854 73.4711 73.5694C73.4711 69.696 76.1821 66.4595 79.8019 65.6127V54.2125H55.6594V75.3449C55.6594 80.157 51.7451 84.0711 46.9341 84.0711C45.0721 84.0711 43.3447 83.4847 41.926 82.4871V89.0374C41.926 93.8494 38.0118 97.7638 33.1998 97.7638C28.3886 97.7638 24.4746 93.8494 24.4746 89.0374V80.5491C23.0557 81.5467 21.3282 82.1332 19.4664 82.1332C14.6544 82.1332 10.7403 78.2189 10.7403 73.4069V54.2125H4.64199V112.705H93.4127V54.2125H83.52V65.6127C87.1398 66.4595 89.8507 69.696 89.8507 73.5694ZM38.2097 89.0374C38.2097 91.7989 35.963 94.0456 33.2016 94.0456C30.4402 94.0456 28.1946 91.7989 28.1946 89.0374V73.4069C28.1946 72.3803 27.3621 71.5478 26.3355 71.5478C25.3087 71.5478 24.4764 72.3803 24.4764 73.4069C24.4764 76.1684 22.2296 78.4151 19.4683 78.4151C16.7069 78.4151 14.4602 76.1684 14.4602 73.4069V54.2125H51.943V75.3449C51.943 78.1062 49.6973 80.353 46.9359 80.353C44.1745 80.353 41.9278 78.1062 41.9278 75.3449C41.9278 74.3182 41.0954 73.4859 40.0687 73.4859C39.0421 73.4859 38.2097 74.3182 38.2097 75.3449V89.0374ZM79.802 69.5161C78.2649 70.224 77.1894 71.7691 77.1894 73.5694C77.1894 76.0348 79.1955 78.041 81.661 78.041C84.1265 78.041 86.1326 76.0348 86.1326 73.5694C86.1326 71.7691 85.0572 70.224 83.5201 69.5161V73.5694C83.5201 74.5962 82.6876 75.4285 81.661 75.4285C80.6345 75.4285 79.802 74.5962 79.802 73.5694V69.5161ZM97.4122 116.423H0.640625V123H97.4122V116.423Z" fill="url(#paint0_linear_3586_385)"/>
<defs>
<linearGradient id="paint0_linear_3586_385" x1="49.0277" y1="0" x2="49.0277" y2="123" gradientUnits="userSpaceOnUse">
<stop stop-color="white"/>
<stop offset="1" stop-color="white" stop-opacity="0"/>
</linearGradient>
</defs>
</svg>
