<svg width="106" height="123" viewBox="0 0 106 123" fill="none" xmlns="http://www.w3.org/2000/svg">
<path opacity="0.1" fill-rule="evenodd" clip-rule="evenodd" d="M59.646 94.9111C57.2214 94.1624 55.2279 92.5034 54.0329 90.2403C52.838 87.9772 52.5923 85.3956 53.3419 82.9702L76.8912 6.73155C78.1554 2.63648 81.9417 0 86.0199 0C86.9505 0 87.8971 0.137285 88.8313 0.426606C93.8623 1.98088 96.6904 7.33747 95.1362 12.3686L71.5868 88.607C70.8381 91.0317 69.1793 93.0249 66.916 94.2201C64.6522 95.4132 62.0713 95.6589 59.646 94.9111ZM95.2958 24.1718L75.0611 89.6787C74.1769 92.5422 72.3717 94.9622 69.9208 96.6363C71.1112 99.0203 71.6056 101.661 71.3598 104.294C91.8594 96.6397 105.436 77.2822 105.436 55.1335C105.436 43.9784 101.836 33.1244 95.2958 24.1718ZM67.3197 106.132C68.1366 103.488 67.8869 100.688 66.6691 98.2511C65.3021 98.7172 63.8849 98.9726 62.4574 98.9726C61.1567 98.9726 59.851 98.7775 58.5754 98.3836C55.9003 97.5572 53.6172 95.9217 51.962 93.7125C49.5847 95.0384 47.8014 97.2085 46.9855 99.8508C46.4496 101.584 46.369 103.442 46.7532 105.222C46.7584 105.245 46.7629 105.269 46.7664 105.292L50.9715 123L64.511 110.674C65.8028 109.446 66.784 107.866 67.3197 106.132ZM22.3668 54.7305C27.8722 54.7305 32.3352 50.2675 32.3352 44.7621C32.3352 39.2566 27.8722 34.7936 22.3668 34.7936C16.8613 34.7936 12.3983 39.2566 12.3983 44.7621C12.3983 50.2675 16.8613 54.7305 22.3668 54.7305ZM55.9042 22.9593C55.9042 28.4645 51.4413 32.9274 45.9361 32.9274C40.4309 32.9274 35.968 28.4645 35.968 22.9593C35.968 17.454 40.4309 12.9911 45.9361 12.9911C51.4413 12.9911 55.9042 17.454 55.9042 22.9593ZM29.0664 87.5929C34.5718 87.5929 39.0348 83.1299 39.0348 77.6245C39.0348 72.1191 34.5718 67.6561 29.0664 67.6561C23.561 67.6561 19.098 72.1191 19.098 77.6245C19.098 83.1299 23.561 87.5929 29.0664 87.5929ZM43.2045 106.024L43.3873 106.793C18.6912 102.271 0.382812 80.5212 0.382812 55.1335C0.382812 26.1709 23.9464 2.60732 52.909 2.60732C59.928 2.60732 66.7132 3.97918 73.113 6.6527L49.8704 81.8977C48.9862 84.7611 49.1117 87.7775 50.1917 90.5424C47.0014 92.3203 44.6079 95.2324 43.5124 98.7782C42.8044 101.068 42.6891 103.518 43.1753 105.871C43.1832 105.923 43.1929 105.973 43.2045 106.024ZM59.5376 22.9594C59.5376 15.4586 53.4359 9.35683 45.9361 9.35683C38.4361 9.35683 32.3343 15.4586 32.3343 22.9594C32.3343 30.4592 38.4361 36.561 45.9361 36.561C53.4359 36.561 59.5376 30.4592 59.5376 22.9594ZM22.3656 31.16C14.8655 31.16 8.76367 37.2618 8.76367 44.7619C8.76367 52.2626 14.8655 58.3644 22.3656 58.3644C29.8663 58.3644 35.9681 52.2626 35.9681 44.7619C35.9681 37.2618 29.8663 31.16 22.3656 31.16ZM42.6687 77.6243C42.6687 70.1243 36.5669 64.0227 29.0669 64.0227C21.5662 64.0227 15.4644 70.1243 15.4644 77.6243C15.4644 85.1251 21.5662 91.2269 29.0669 91.2269C36.5669 91.2269 42.6687 85.1251 42.6687 77.6243Z" fill="url(#paint0_linear_3586_376)"/>
<defs>
<linearGradient id="paint0_linear_3586_376" x1="52.9094" y1="0" x2="52.9094" y2="123" gradientUnits="userSpaceOnUse">
<stop stop-color="white"/>
<stop offset="1" stop-color="white" stop-opacity="0"/>
</linearGradient>
</defs>
</svg>
