<svg width="24" height="100" viewBox="0 0 24 100" fill="none" xmlns="http://www.w3.org/2000/svg">
<path opacity="0.1" fill-rule="evenodd" clip-rule="evenodd" d="M37.8501 42.6029C26.1044 42.6029 16.5488 33.0468 16.5488 21.3011C16.5488 9.55537 26.1044 0 37.8501 0C49.5958 0 59.1512 9.55537 59.1512 21.3011C59.1512 33.0468 49.5958 42.6029 37.8501 42.6029ZM38.4092 6.30374C38.4092 5.53926 37.7892 4.91927 37.0247 4.91927C28.7706 4.91927 22.0557 11.6341 22.0557 19.8882C22.0557 20.6529 22.6755 21.2727 23.4402 21.2727C24.2047 21.2727 24.8247 20.6529 24.8247 19.8882C24.8247 13.1612 30.2977 7.68822 37.0247 7.68822C37.7892 7.68822 38.4092 7.06823 38.4092 6.30374ZM30.4909 71.1653V44.2113C32.8126 44.9589 35.2829 45.3718 37.85 45.3718C40.4171 45.3718 42.8874 44.9589 45.2091 44.2113V71.1653C42.6576 71.0499 40.172 70.9928 37.85 70.9928C35.528 70.9928 33.0424 71.0499 30.4909 71.1653ZM37.8527 85.1804C62.705 85.1804 75.7054 90.0043 75.7054 92.5901C75.7054 95.1759 62.705 100 37.8527 100C13.0004 100 0 95.1759 0 92.5901C0 90.0043 13.0004 85.1804 37.8527 85.1804ZM75.7054 81.1718C75.7054 78.9095 65.7556 74.9347 46.6257 73.9749C46.6212 73.9751 46.6171 73.9762 46.6129 73.9774L46.6114 73.9779C46.6066 73.9794 46.6017 73.9809 46.5963 73.9809C46.5882 73.9809 46.5807 73.9786 46.5733 73.9764C46.5663 73.9742 46.5593 73.9721 46.5517 73.9719C43.8354 73.8367 40.9362 73.7619 37.8527 73.7619C34.7692 73.7619 31.8701 73.8367 29.1538 73.9719C29.146 73.9721 29.139 73.9742 29.132 73.9764C29.1246 73.9786 29.1172 73.9809 29.1091 73.9809C29.1037 73.9809 29.0988 73.9794 29.0939 73.9779C29.0893 73.9765 29.0847 73.9751 29.0797 73.9749C9.94982 74.9347 0 78.9095 0 81.1718V88.6016C6.8187 84.1329 24.8533 82.4116 37.8527 82.4116C50.8521 82.4116 68.8867 84.1329 75.7054 88.6016V81.1718Z" fill="url(#paint0_linear_3586_368)"/>
<defs>
<linearGradient id="paint0_linear_3586_368" x1="37.8527" y1="0" x2="37.8527" y2="100" gradientUnits="userSpaceOnUse">
<stop stop-color="white"/>
<stop offset="1" stop-color="white" stop-opacity="0"/>
</linearGradient>
</defs>
</svg>
