<svg width="65" height="65" viewBox="0 0 65 65" fill="none" xmlns="http://www.w3.org/2000/svg">
<g id="mdi:face-happy" opacity="0.1">
<path id="Vector" d="M32.5013 5.4165C28.9447 5.4165 25.4229 6.11704 22.137 7.4781C18.8511 8.83916 15.8654 10.8341 13.3505 13.349C8.27138 18.4281 5.41797 25.3169 5.41797 32.4998C5.41797 39.6828 8.27138 46.5715 13.3505 51.6507C15.8654 54.1656 18.8511 56.1605 22.137 57.5216C25.4229 58.8826 28.9447 59.5832 32.5013 59.5832C39.6842 59.5832 46.573 56.7298 51.6521 51.6507C56.7312 46.5715 59.5846 39.6828 59.5846 32.4998C59.5846 28.9432 58.8841 25.4214 57.523 22.1355C56.162 18.8496 54.167 15.8639 51.6521 13.349C49.1372 10.8341 46.1516 8.83916 42.8656 7.4781C39.5797 6.11704 36.0579 5.4165 32.5013 5.4165ZM18.9596 25.729C18.9596 23.5623 20.8555 21.6665 23.0221 21.6665C25.1888 21.6665 27.0846 23.5623 27.0846 25.729C27.0846 27.8957 25.1888 29.7915 23.0221 29.7915C20.8555 29.7915 18.9596 27.8957 18.9596 25.729ZM32.5013 46.6644C27.7617 46.6644 23.5909 44.6873 21.1534 41.7623L24.9992 37.9165C26.218 39.8665 29.1159 41.2478 32.5013 41.2478C35.8867 41.2478 38.7846 39.8665 40.0034 37.9165L43.8492 41.7623C41.4117 44.6873 37.2409 46.6644 32.5013 46.6644ZM41.9805 29.7915C39.8138 29.7915 37.918 27.8957 37.918 25.729C37.918 23.5623 39.8138 21.6665 41.9805 21.6665C44.1471 21.6665 46.043 23.5623 46.043 25.729C46.043 27.8957 44.1471 29.7915 41.9805 29.7915Z" fill="white"/>
</g>
</svg>
