<svg width="18" height="18" viewBox="0 0 18 18" fill="none" xmlns="http://www.w3.org/2000/svg">
<g id="ic:round-phone">
<path id="Vector" d="M14.1658 11.3291L12.3516 11.122C12.1382 11.0969 11.922 11.1205 11.7191 11.191C11.5162 11.2616 11.3319 11.3771 11.1801 11.5291L9.86585 12.8434C7.83813 11.8121 6.18998 10.164 5.15871 8.13624L6.48013 6.81482C6.78728 6.50767 6.93728 6.0791 6.88728 5.64339L6.68013 3.84339C6.63964 3.49494 6.47242 3.17356 6.2103 2.94042C5.94819 2.70729 5.6095 2.57869 5.25871 2.5791H4.02299C3.21585 2.5791 2.54442 3.25053 2.59442 4.05767C2.97299 10.1577 7.85156 15.0291 13.9444 15.4077C14.7516 15.4577 15.423 14.7862 15.423 13.9791V12.7434C15.4301 12.022 14.8873 11.4148 14.1658 11.3291Z" fill="white"/>
</g>
</svg>
