<svg width="40" height="40" viewBox="0 0 40 40" fill="none" xmlns="http://www.w3.org/2000/svg">
<g opacity="0.2">
<path d="M16.1757 7.98833C15.6874 7.5 14.9024 7.5 13.3307 7.5H12.9141V5C12.9141 4.66848 12.7824 4.35054 12.5479 4.11612C12.3135 3.8817 11.9956 3.75 11.6641 3.75C11.3325 3.75 11.0146 3.8817 10.7802 4.11612C10.5458 4.35054 10.4141 4.66848 10.4141 5V7.5H9.9974C8.42573 7.5 7.64073 7.5 7.1524 7.98833C6.66406 8.47667 6.66406 9.26167 6.66406 10.8333V11.1733C7.00073 11.085 7.34073 11.0233 7.67406 10.9783C8.7474 10.8333 10.0724 10.8333 11.5141 10.8333H11.8124C13.2541 10.8333 14.5774 10.8333 15.6524 10.9783C15.9857 11.0217 16.3257 11.085 16.6624 11.1733V10.8333C16.6624 9.26167 16.6641 8.47667 16.1757 7.98833Z" fill="white"/>
<path fill-rule="evenodd" clip-rule="evenodd" d="M3.33594 35.4167C3.00442 35.4167 2.68647 35.5484 2.45205 35.7828C2.21763 36.0172 2.08594 36.3351 2.08594 36.6667C2.08594 36.9982 2.21763 37.3161 2.45205 37.5506C2.68647 37.785 3.00442 37.9167 3.33594 37.9167H36.6693C37.0008 37.9167 37.3187 37.785 37.5532 37.5506C37.7876 37.3161 37.9193 36.9982 37.9193 36.6667C37.9193 36.3351 37.7876 36.0172 37.5532 35.7828C37.3187 35.5484 37.0008 35.4167 36.6693 35.4167H35.0026V12.9533C35.0026 10.72 35.0026 9.60167 34.4093 8.745C33.8159 7.88834 32.7693 7.495 30.6759 6.71167C26.5843 5.17667 24.5393 4.41 23.1043 5.40334C21.6693 6.4 21.6693 8.58334 21.6693 12.9533V17.5H21.8193C23.2609 17.5 24.5843 17.5 25.6593 17.645C26.8443 17.8033 28.0976 18.1783 29.1259 19.2083C30.1576 20.2383 30.5326 21.4917 30.6926 22.675C30.8359 23.7517 30.8359 25.075 30.8359 26.5183V35.4167H28.3359V26.6667C28.3359 23.5233 28.3359 21.9533 27.3593 20.9767C26.3826 20 24.8126 20 21.6693 20H18.3359C15.1926 20 13.6226 20 12.6459 20.9767C11.6693 21.9533 11.6693 23.5233 11.6693 26.6667V35.4167H9.16927V26.5167C9.16927 25.075 9.16927 23.7517 9.31427 22.6767C9.4726 21.4917 9.8476 20.2383 10.8776 19.21C11.9076 18.1783 13.1609 17.8033 14.3443 17.6433C15.4209 17.5 16.7443 17.5 18.1876 17.5H18.3076C18.2409 15.94 18.0326 14.9833 17.3593 14.31C16.3826 13.3333 14.8126 13.3333 11.6693 13.3333C8.52594 13.3333 6.95594 13.3333 5.97927 14.31C5.0026 15.2867 5.0026 16.8567 5.0026 20V35.4167H3.33594ZM15.4193 25C15.4193 24.6685 15.551 24.3505 15.7854 24.1161C16.0198 23.8817 16.3377 23.75 16.6693 23.75H23.3359C23.6675 23.75 23.9854 23.8817 24.2198 24.1161C24.4542 24.3505 24.5859 24.6685 24.5859 25C24.5859 25.3315 24.4542 25.6495 24.2198 25.8839C23.9854 26.1183 23.6675 26.25 23.3359 26.25H16.6693C16.3377 26.25 16.0198 26.1183 15.7854 25.8839C15.551 25.6495 15.4193 25.3315 15.4193 25ZM15.4193 30C15.4193 29.6685 15.551 29.3505 15.7854 29.1161C16.0198 28.8817 16.3377 28.75 16.6693 28.75H23.3359C23.6675 28.75 23.9854 28.8817 24.2198 29.1161C24.4542 29.3505 24.5859 29.6685 24.5859 30C24.5859 30.3315 24.4542 30.6495 24.2198 30.8839C23.9854 31.1183 23.6675 31.25 23.3359 31.25H16.6693C16.3377 31.25 16.0198 31.1183 15.7854 30.8839C15.551 30.6495 15.4193 30.3315 15.4193 30Z" fill="white"/>
</g>
</svg>
