<svg width="18" height="18" viewBox="0 0 18 18" fill="none" xmlns="http://www.w3.org/2000/svg">
<g id="basil:viber-outline">
<path id="Vector" d="M6.12026 4.85857C5.98751 4.83925 5.85214 4.86597 5.73669 4.93429H5.72669C5.45883 5.09143 5.2174 5.28929 5.01169 5.52214C4.84026 5.72 4.7474 5.92 4.72312 6.11286C4.70883 6.22714 4.71883 6.34286 4.7524 6.45214L4.76526 6.45929C4.95812 7.02571 5.20955 7.57071 5.51669 8.08357C5.91273 8.80392 6.40009 9.47014 6.96669 10.0657L6.98383 10.09L7.01097 10.11L7.0274 10.1293L7.0474 10.1464C7.64507 10.7147 8.31285 11.2044 9.03455 11.6036C9.85955 12.0529 10.3603 12.265 10.661 12.3536V12.3579C10.7488 12.385 10.8288 12.3971 10.9095 12.3971C11.1656 12.3782 11.408 12.2741 11.5981 12.1014C11.8303 11.8957 12.0267 11.6536 12.1795 11.3843V11.3793C12.3231 11.1079 12.2745 10.8521 12.0674 10.6786C11.6513 10.315 11.2014 9.99212 10.7238 9.71429C10.4038 9.54071 10.0788 9.64571 9.9474 9.82143L9.66669 10.1757C9.5224 10.3514 9.26098 10.3271 9.26098 10.3271L9.25383 10.3314C7.30312 9.83357 6.7824 7.85857 6.7824 7.85857C6.7824 7.85857 6.75812 7.59 6.93883 7.45286L7.29026 7.17C7.45883 7.03286 7.57597 6.70857 7.39526 6.38857C7.11926 5.91054 6.797 5.46077 6.43312 5.04571C6.35375 4.94803 6.24245 4.8815 6.11883 4.85786L6.12026 4.85857ZM9.41669 4C9.32197 4 9.23113 4.03763 9.16415 4.1046C9.09717 4.17158 9.05955 4.26242 9.05955 4.35714C9.05955 4.45186 9.09717 4.5427 9.16415 4.60968C9.23113 4.67666 9.32197 4.71429 9.41669 4.71429C10.3195 4.71429 11.0695 5.00929 11.6631 5.575C11.9681 5.88429 12.206 6.25071 12.3617 6.65214C12.5181 7.05429 12.5895 7.48357 12.571 7.91357C12.567 8.00829 12.6008 8.10071 12.665 8.1705C12.7291 8.24029 12.8184 8.28174 12.9131 8.28571C13.0078 8.28969 13.1003 8.25588 13.17 8.19172C13.2398 8.12755 13.2813 8.03829 13.2853 7.94357C13.3074 7.41463 13.2196 6.88685 13.0274 6.39357C12.8344 5.89795 12.5417 5.44723 12.1674 5.06929L12.1603 5.06214C11.4238 4.35857 10.4924 4 9.41669 4Z" fill="white"/>
<path id="Vector_2" d="M9.38644 5.17454C9.29172 5.17454 9.20088 5.21217 9.1339 5.27915C9.06692 5.34612 9.0293 5.43697 9.0293 5.53169C9.0293 5.62641 9.06692 5.71725 9.1339 5.78422C9.20088 5.8512 9.29172 5.88883 9.38644 5.88883H9.39858C10.05 5.93526 10.5243 6.1524 10.8564 6.50883C11.1972 6.87597 11.3736 7.3324 11.36 7.89669C11.3578 7.99141 11.3934 8.08311 11.4588 8.15163C11.5242 8.22015 11.6142 8.25986 11.7089 8.26204C11.8037 8.26422 11.8954 8.22868 11.9639 8.16325C12.0324 8.09781 12.0721 8.00783 12.0743 7.91311C12.0914 7.1724 11.8529 6.53311 11.38 6.02311V6.02169C10.8964 5.50311 10.2329 5.22883 9.4343 5.17526L9.42215 5.17383L9.38644 5.17454Z" fill="white"/>
<path id="Vector_3" d="M9.37877 6.37052C9.33097 6.36631 9.28282 6.37176 9.23718 6.38657C9.19154 6.40137 9.14935 6.42522 9.11313 6.45669C9.07691 6.48816 9.0474 6.52661 9.02637 6.56974C9.00534 6.61286 8.99321 6.65978 8.99072 6.7077C8.98822 6.75562 8.99541 6.80354 9.01184 6.84862C9.02828 6.8937 9.05363 6.93501 9.08638 6.97007C9.11913 7.00513 9.15861 7.03324 9.20247 7.05271C9.24632 7.07218 9.29365 7.08261 9.34163 7.08338C9.6402 7.09909 9.83091 7.18909 9.95091 7.30981C10.0716 7.43124 10.1616 7.62624 10.1781 7.93124C10.1789 7.97917 10.1895 8.02642 10.209 8.0702C10.2286 8.11397 10.2567 8.15336 10.2918 8.18602C10.3269 8.21868 10.3682 8.24394 10.4133 8.2603C10.4583 8.27666 10.5062 8.28378 10.5541 8.28124C10.6019 8.27869 10.6488 8.26654 10.6919 8.2455C10.735 8.22446 10.7734 8.19497 10.8048 8.15878C10.8362 8.12258 10.86 8.08043 10.8748 8.03484C10.8896 7.98924 10.8951 7.94113 10.8909 7.89338C10.8681 7.46481 10.7338 7.08624 10.4588 6.80767C10.1823 6.52909 9.80591 6.39338 9.37877 6.37052Z" fill="white"/>
<path id="Vector_4" fill-rule="evenodd" clip-rule="evenodd" d="M5.47769 2.13154C7.75059 1.62347 10.1076 1.62347 12.3805 2.13154L12.6227 2.18511C13.2871 2.33365 13.8973 2.66349 14.3856 3.13798C14.8738 3.61248 15.221 4.21305 15.3884 4.87297C15.9653 7.14646 15.9653 9.52805 15.3884 11.8015C15.221 12.4615 14.8738 13.062 14.3856 13.5365C13.8973 14.011 13.2871 14.3409 12.6227 14.4894L12.3798 14.543C10.9563 14.8613 9.49553 14.9813 8.03912 14.8994L6.14412 16.5951C6.07267 16.6591 5.98537 16.7027 5.89132 16.7214C5.79727 16.7401 5.69992 16.7332 5.60944 16.7015C5.51895 16.6698 5.43864 16.6143 5.37689 16.5409C5.31515 16.4676 5.27423 16.379 5.2584 16.2844L4.94483 14.4115C4.34353 14.2244 3.80027 13.8863 3.36695 13.4293C2.93364 12.9724 2.62476 12.4119 2.46983 11.8015C1.89287 9.52805 1.89287 7.14646 2.46983 4.87297C2.63727 4.21305 2.9844 3.61248 3.47264 3.13798C3.96088 2.66349 4.57112 2.33365 5.23554 2.18511L5.47769 2.13154ZM12.147 3.17654C10.0279 2.70283 7.83035 2.70283 5.71126 3.17654L5.4684 3.23083C4.99749 3.33629 4.56502 3.57022 4.21903 3.90663C3.87303 4.24304 3.62705 4.66877 3.5084 5.13654C2.97534 7.23706 2.97534 9.43745 3.5084 11.538C3.62711 12.0058 3.8732 12.4316 4.21932 12.768C4.56545 13.1045 4.99807 13.3383 5.46912 13.4437L5.5334 13.458C5.6374 13.4812 5.73209 13.535 5.80538 13.6123C5.87867 13.6897 5.92722 13.7872 5.94483 13.8923L6.15483 15.148L7.49197 13.9515C7.54537 13.9036 7.60785 13.8669 7.6757 13.8436C7.74356 13.8203 7.8154 13.8108 7.88697 13.8158C9.31487 13.9171 10.7499 13.81 12.147 13.498L12.3891 13.4437C12.8602 13.3383 13.2928 13.1045 13.6389 12.768C13.985 12.4316 14.2311 12.0058 14.3498 11.538C14.8827 9.43797 14.8827 7.23725 14.3498 5.13654C14.2311 4.66868 13.985 4.24289 13.6389 3.90647C13.2928 3.57005 12.8602 3.33618 12.3891 3.23083L12.147 3.17654Z" fill="white"/>
</g>
</svg>
