<svg width="21" height="21" viewBox="0 0 21 21" fill="none" xmlns="http://www.w3.org/2000/svg">
<path d="M16.668 4.2963C15.8658 3.48599 14.9103 2.84351 13.8572 2.40635C12.8041 1.96918 11.6744 1.74608 10.5342 1.75005C5.75672 1.75005 1.86297 5.6438 1.86297 10.4213C1.86297 11.9526 2.26547 13.4401 3.01797 14.7526L1.79297 19.2501L6.38672 18.0426C7.65547 18.7338 9.08172 19.1013 10.5342 19.1013C15.3117 19.1013 19.2055 15.2076 19.2055 10.4301C19.2055 8.1113 18.3042 5.93255 16.668 4.2963ZM10.5342 17.6313C9.23922 17.6313 7.97047 17.2813 6.85922 16.6251L6.59672 16.4676L3.86672 17.1851L4.59297 14.5251L4.41797 14.2538C3.6985 13.1049 3.31647 11.7769 3.31547 10.4213C3.31547 6.4488 6.55297 3.2113 10.5255 3.2113C12.4505 3.2113 14.2617 3.9638 15.618 5.3288C16.2895 5.99727 16.8217 6.79238 17.1837 7.66805C17.5457 8.54372 17.7302 9.48252 17.7267 10.4301C17.7442 14.4026 14.5067 17.6313 10.5342 17.6313ZM14.4892 12.2413C14.2705 12.1363 13.203 11.6113 13.0105 11.5326C12.8092 11.4626 12.6692 11.4276 12.5205 11.6376C12.3717 11.8563 11.9605 12.3463 11.838 12.4863C11.7155 12.6351 11.5842 12.6526 11.3655 12.5388C11.1467 12.4338 10.4467 12.1976 9.62422 11.4626C8.97672 10.8851 8.54797 10.1763 8.41672 9.95755C8.29422 9.7388 8.39922 9.62505 8.51297 9.5113C8.60922 9.41505 8.73172 9.25755 8.83672 9.13505C8.94172 9.01255 8.98547 8.9163 9.05547 8.7763C9.12547 8.62755 9.09047 8.50505 9.03797 8.40005C8.98547 8.29505 8.54797 7.22755 8.37297 6.79005C8.19797 6.37005 8.01422 6.42255 7.88297 6.4138H7.46297C7.31422 6.4138 7.08672 6.4663 6.88547 6.68505C6.69297 6.9038 6.13297 7.4288 6.13297 8.4963C6.13297 9.5638 6.91172 10.5963 7.01672 10.7363C7.12172 10.8851 8.54797 13.0726 10.718 14.0088C11.2342 14.2363 11.6367 14.3676 11.9517 14.4638C12.468 14.6301 12.9405 14.6038 13.3167 14.5513C13.7367 14.4901 14.603 14.0263 14.778 13.5188C14.9617 13.0113 14.9617 12.5826 14.9005 12.4863C14.8392 12.3901 14.708 12.3463 14.4892 12.2413Z" fill="white"/>
</svg>
