<svg width="52" height="44" viewBox="0 0 52 44" fill="none" xmlns="http://www.w3.org/2000/svg">
<g clip-path="url(#clip0_3566_1919)">
<path d="M51.7762 15.6024C51.7762 24.2195 44.7077 31.2048 35.9879 31.2048C32.0791 31.2048 28.5029 29.8009 25.7455 27.4765C25.722 27.4557 25.6979 27.4348 25.6727 27.4151C25.3272 27.1328 24.8838 26.9635 24.4011 26.9635C23.8931 26.9635 23.4291 27.1508 23.0766 27.458C23.0285 27.5003 22.9816 27.5449 22.9382 27.5913C20.5685 29.8299 17.3571 31.2048 13.8208 31.2048C6.53338 31.2048 0.625 25.3666 0.625 18.1645C0.625 10.9623 6.53221 5.1241 13.8202 5.1241C16.2843 5.1241 18.5918 5.79185 20.5656 6.95463C20.8677 7.13606 21.2225 7.24098 21.6026 7.24098C22.2384 7.24098 22.8045 6.94767 23.1711 6.49091C23.2057 6.4486 23.2385 6.40396 23.269 6.35817C26.1431 2.50177 30.7693 0 35.9879 0C44.7077 0 51.7762 6.98535 51.7762 15.6024Z" fill="url(#paint0_linear_3566_1919)"/>
<path d="M18.3133 23.3563C18.2365 23.2897 18.162 23.223 18.0898 23.1558C18.1714 23.2155 18.2459 23.2844 18.3133 23.3563Z" fill="url(#paint1_linear_3566_1919)"/>
<path d="M15.7796 34.9888C18.3511 34.9888 19.8057 36.7608 19.8057 39.1518C19.8057 39.4526 19.7717 39.7535 19.7383 40.0543H14.2405C14.4604 41.1075 15.3403 41.5921 16.2705 41.5921C17.1334 41.5921 17.9622 41.191 18.6725 40.7227L19.7553 42.7456C18.808 43.5479 17.3697 43.9994 16.0336 43.9994C12.9207 43.9994 11.2461 41.7759 11.2461 39.4857C11.2461 36.9613 12.9717 34.9888 15.7796 34.9888ZM16.9128 38.3994C16.9128 37.6975 16.4559 37.112 15.7115 37.112C14.8657 37.112 14.4598 37.7137 14.3073 38.3994H16.9128Z" fill="white"/>
<path d="M27.0206 34.9888C28.2389 34.9888 30.235 35.4565 30.235 37.0117V38.1989H27.6975V37.7473C27.6975 37.4801 27.3761 37.3792 27.0206 37.3792C25.7859 37.3792 25.0416 38.2986 25.0416 39.4521C25.0416 40.9232 26.1584 41.5081 27.2406 41.5081C28.4923 41.5081 29.6425 40.3882 29.6425 40.3882L30.8098 42.3277C30.8098 42.3277 29.4396 43.9994 26.9526 43.9994C23.8397 43.9994 22.0977 41.8594 22.0977 39.4857C22.0977 37.112 23.7218 34.9888 27.0206 34.9888Z" fill="white"/>
<path d="M37.7653 34.9888C40.5227 34.9888 42.7053 36.8112 42.7053 39.5193C42.7053 42.2274 40.5227 43.9994 37.7823 43.9994C35.042 43.9994 32.8594 42.2106 32.8594 39.5193C32.8594 36.828 35.042 34.9888 37.7653 34.9888ZM37.7823 41.5921C38.8481 41.5921 39.762 40.8061 39.762 39.5193C39.762 38.2325 38.8481 37.3961 37.7823 37.3961C36.7166 37.3961 35.8033 38.2151 35.8033 39.5193C35.8033 40.8235 36.7166 41.5921 37.7823 41.5921Z" fill="white"/>
<path d="M45.8044 37.9816C45.8044 37.7474 45.6689 37.6135 45.4319 37.6135H44.7891V35.1894H47.3775C48.1729 35.1894 48.6122 35.5071 48.6122 36.2931V36.7446C48.6122 37.0119 48.5782 37.1794 48.5782 37.1794H48.6122C48.9847 36.0091 50.0839 35.0393 51.3867 35.0393C51.5556 35.0393 51.7251 35.0729 51.7251 35.0729V37.9149C51.7251 37.9149 51.4881 37.8651 51.1333 37.8651C50.4394 37.8651 49.3061 38.0825 48.8832 39.3699C48.7818 39.6875 48.7307 40.0718 48.7307 40.5402V43.8001H45.8038V37.9822L45.8044 37.9816Z" fill="white"/>
<path d="M1.53696 36.9433H0.753906V35.1702H4.29495C7.00543 35.1702 8.73987 36.719 8.73987 39.379C8.73987 42.039 7.00543 43.6232 4.29495 43.6232H2.41562C1.8015 43.6232 1.53637 43.3629 1.53637 42.7601V36.9433H1.53696ZM3.95826 41.8495H4.21107C5.6323 41.8495 6.49981 40.9985 6.49981 39.3784C6.49981 37.7583 5.59652 36.9427 4.21107 36.9427H3.69314V41.5892C3.69314 41.755 3.78934 41.8495 3.95826 41.8495Z" fill="white" stroke="white" stroke-miterlimit="10"/>
<path d="M24.6484 8.22352C24.7493 8.07571 24.8526 7.92964 24.9587 7.78589C24.8684 7.94123 24.7646 8.08789 24.6484 8.22352Z" fill="url(#paint2_linear_3566_1919)"/>
<path d="M26.7237 27.0703C26.6392 26.9903 26.5554 26.9097 26.4727 26.8274C26.5618 26.9033 26.6457 26.9845 26.7237 27.0703Z" fill="url(#paint3_linear_3566_1919)"/>
<path d="M23.1904 27.4133C23.144 27.4585 23.0977 27.5032 23.0508 27.5478C23.0948 27.5009 23.1417 27.4562 23.1904 27.4133Z" fill="url(#paint4_linear_3566_1919)"/>
<path d="M51.1155 21.3039C49.8485 21.3039 47.5826 21.0002 47.5826 18.7987V13.3906H51.7308V6.9953H47.5826V0.306152H41.1317V6.9953H36.5994C36.5395 6.9953 36.4797 6.99646 36.4199 6.99762C33.5411 7.08515 31.1286 9.2513 30.3015 11.8533H30.2235C30.2235 11.8533 30.3015 11.4742 30.3015 10.8674V9.84254C30.3015 8.05838 29.3026 7.33729 27.4972 7.33729H21.6216V12.8411H23.081C23.6183 12.8411 23.9256 13.1448 23.9256 13.6758V21.3793H19.2408C18.7035 21.3793 18.3962 21.0756 18.3962 20.5446V14.8519C18.3962 10.2222 16.1303 6.88169 8.98781 6.88169C6.95128 6.88169 1.34497 7.14775 1.34497 11.4742V13.6375H7.48974V12.7651C7.48974 12.0064 8.37251 11.8157 9.21715 11.8157C10.8695 11.8157 11.7522 12.4991 11.7522 14.3592V14.7006H11.483C8.44935 14.7006 0 15.2315 0 21.4175C0 24.9465 2.76503 27.3387 6.49084 27.3387C10.5621 27.3387 12.2514 24.4914 12.2514 24.4914H12.3277V24.8328C12.3277 25.7058 13.0192 26.8831 14.9396 26.8831H30.5696V19.4821C30.5696 18.419 30.6857 17.5467 30.9151 16.825C31.8758 13.9036 34.4485 13.4097 36.024 13.4097C36.8305 13.4097 37.3678 13.3906 37.3678 13.3906H40.9387V19.6722C40.9387 26.2379 47.0454 27.0726 50.1946 27.0726C51.2697 27.0726 52 26.959 52 26.959V21.2663C52 21.2663 51.6539 21.3039 51.1155 21.3039ZM11.8291 18.9888C11.8291 20.5829 10.331 22.4424 8.44935 22.4424C7.22051 22.4424 6.56709 21.6077 6.56709 20.7341C6.56709 19.1024 8.98781 18.4567 11.0994 18.4567H11.8291V18.9888Z" fill="white"/>
</g>
<defs>
<linearGradient id="paint0_linear_3566_1919" x1="18.7268" y1="-19.9674" x2="60.6667" y2="-12.9678" gradientUnits="userSpaceOnUse">
<stop stop-color="#41C5CB"/>
<stop offset="1" stop-color="#8034B9"/>
</linearGradient>
<linearGradient id="paint1_linear_3566_1919" x1="18.1573" y1="23.2798" x2="18.2448" y2="23.232" gradientUnits="userSpaceOnUse">
<stop stop-color="#00FFFF"/>
<stop offset="0.16" stop-color="#1BC7E1"/>
<stop offset="0.36" stop-color="#3A85BF"/>
<stop offset="0.53" stop-color="#5255A6"/>
<stop offset="0.66" stop-color="#603896"/>
<stop offset="0.74" stop-color="#662D91"/>
</linearGradient>
<linearGradient id="paint2_linear_3566_1919" x1="24.591" y1="8.11803" x2="25.0139" y2="7.88661" gradientUnits="userSpaceOnUse">
<stop stop-color="#00FFFF"/>
<stop offset="0.16" stop-color="#1BC7E1"/>
<stop offset="0.36" stop-color="#3A85BF"/>
<stop offset="0.53" stop-color="#5255A6"/>
<stop offset="0.66" stop-color="#603896"/>
<stop offset="0.74" stop-color="#662D91"/>
</linearGradient>
<linearGradient id="paint3_linear_3566_1919" x1="26.5524" y1="26.9729" x2="26.6434" y2="26.9233" gradientUnits="userSpaceOnUse">
<stop stop-color="#00FFFF"/>
<stop offset="0.16" stop-color="#1BC7E1"/>
<stop offset="0.36" stop-color="#3A85BF"/>
<stop offset="0.53" stop-color="#5255A6"/>
<stop offset="0.66" stop-color="#603896"/>
<stop offset="0.74" stop-color="#662D91"/>
</linearGradient>
<linearGradient id="paint4_linear_3566_1919" x1="23.0379" y1="27.524" x2="23.2024" y2="27.4349" gradientUnits="userSpaceOnUse">
<stop stop-color="#00FFFF"/>
<stop offset="0.16" stop-color="#1BC7E1"/>
<stop offset="0.36" stop-color="#3A85BF"/>
<stop offset="0.53" stop-color="#5255A6"/>
<stop offset="0.66" stop-color="#603896"/>
<stop offset="0.74" stop-color="#662D91"/>
</linearGradient>
<clipPath id="clip0_3566_1919">
<rect width="52" height="44" fill="white"/>
</clipPath>
</defs>
</svg>
